<?xml version="1.0" encoding="UTF-8"?>
<svg version="1.1" xmlns="http://www.w3.org/2000/svg" width="500" height="500">
<path d="M0 0 C4.0209138 0.60289397 6.49460522 2.05550948 9.91796875 4.234375 C11.03558594 4.93046875 12.15320313 5.6265625 13.3046875 6.34375 C17.81503375 9.64370961 17.81503375 9.64370961 19.23046875 12.484375 C19.5240296 15.40847128 19.6500264 18.06832437 19.60546875 20.984375 C19.61707031 21.74363281 19.62867187 22.50289062 19.640625 23.28515625 C19.61788709 27.61293864 19.36431826 30.3671067 16.23046875 33.484375 C17.30425781 33.46117187 18.37804687 33.43796875 19.484375 33.4140625 C20.9205659 33.39528876 22.3567644 33.3770903 23.79296875 33.359375 C24.49744141 33.34261719 25.20191406 33.32585937 25.92773438 33.30859375 C31.52203226 33.2570334 36.67706402 33.70888927 41.41015625 37 C44.96380302 40.63552803 47.23046875 43.11786431 47.23046875 48.484375 C46.23046875 49.484375 46.23046875 49.484375 44.43980408 49.60462952 C43.66036942 49.60240891 42.88093475 49.60018829 42.07788086 49.59790039 C41.1970433 49.59782486 40.31620575 49.59774933 39.40867615 49.59767151 C38.45139114 49.59251022 37.49410614 49.58734894 36.5078125 49.58203125 C35.53260147 49.5806163 34.55739044 49.57920135 33.55262756 49.57774353 C30.42437732 49.57212633 27.29619752 49.55957093 24.16796875 49.546875 C22.05273541 49.54186222 19.93750094 49.53729893 17.82226562 49.53320312 C12.62497579 49.52215131 7.4277273 49.50539646 2.23046875 49.484375 C1.10546875 44.734375 1.10546875 44.734375 2.23046875 42.484375 C1.28171875 42.38125 0.33296875 42.278125 -0.64453125 42.171875 C-3.76953125 41.484375 -3.76953125 41.484375 -5.76953125 38.484375 C-5.97699359 35.91755874 -6.07358197 33.4618572 -6.0703125 30.89453125 C-6.07459763 30.15359726 -6.07888275 29.41266327 -6.08329773 28.64927673 C-6.08903643 27.08333355 -6.08954466 25.5173637 -6.08520508 23.95141602 C-6.08204718 21.55894341 -6.10550084 19.16771017 -6.13085938 16.77539062 C-6.13313268 15.25260572 -6.13383572 13.7298175 -6.1328125 12.20703125 C-6.14202225 11.49337906 -6.15123199 10.77972687 -6.16072083 10.04444885 C-6.13184322 6.93488863 -5.93178662 4.77921131 -4.41992188 2.03198242 C-2.76953125 0.484375 -2.76953125 0.484375 0 0 Z M12.23046875 35.484375 C11.90046875 36.144375 11.57046875 36.804375 11.23046875 37.484375 C11.89046875 37.484375 12.55046875 37.484375 13.23046875 37.484375 C12.90046875 36.824375 12.57046875 36.164375 12.23046875 35.484375 Z M5.23046875 39.484375 C4.90046875 40.144375 4.57046875 40.804375 4.23046875 41.484375 C5.22046875 41.154375 6.21046875 40.824375 7.23046875 40.484375 C6.57046875 40.154375 5.91046875 39.824375 5.23046875 39.484375 Z " fill="#F7796D" transform="translate(73.76953125,177.515625)"/>
<path d="M0 0 C1.22125328 -0.00461494 1.22125328 -0.00461494 2.46717834 -0.00932312 C3.77977882 0.00145515 3.77977882 0.00145515 5.11889648 0.01245117 C6.47047096 0.0131385 6.47047096 0.0131385 7.84934998 0.01383972 C9.75325844 0.01685992 11.65716448 0.02473928 13.56103516 0.03710938 C16.48210356 0.05537062 19.40285507 0.05761899 22.32397461 0.05737305 C24.17228465 0.06228815 26.02059254 0.06811644 27.86889648 0.07495117 C29.18453331 0.07662041 29.18453331 0.07662041 30.52674866 0.07832336 C36.69534753 0.12684857 36.69534753 0.12684857 38.92749023 1.24291992 C39.33527538 4.62513785 39.18875207 5.89680382 37.09936523 8.66479492 C35.90053711 9.8172168 35.90053711 9.8172168 34.67749023 10.99291992 C33.88858398 11.77151367 33.09967773 12.55010742 32.28686523 13.35229492 C26.77536683 17.76879364 18.66072793 16.85180547 11.88061523 16.47827148 C7.30401015 15.92679057 3.70358821 13.73643434 -0.07250977 11.24291992 C-0.7002832 10.89745117 -1.32805664 10.55198242 -1.97485352 10.19604492 C-4.80009688 8.57402285 -5.94513627 7.64323662 -6.94750977 4.49291992 C-6.98875977 3.75041992 -7.03000977 3.00791992 -7.07250977 2.24291992 C-4.01854052 0.20694043 -3.4299768 -0.00682969 0 0 Z " fill="#644FF0" transform="translate(82.072509765625,169.757080078125)"/>
<path d="M0 0 C1.65 0.33 3.3 0.66 5 1 C5.28875 1.886875 5.5775 2.77375 5.875 3.6875 C6.83148748 6.50382424 7.86798946 9.25083156 9 12 C9.19335938 11.30132812 9.38671875 10.60265625 9.5859375 9.8828125 C9.84632813 8.97273437 10.10671875 8.06265625 10.375 7.125 C10.75785156 5.76761719 10.75785156 5.76761719 11.1484375 4.3828125 C12 2 12 2 14 0 C16.4375 -0.125 16.4375 -0.125 19 1 C21.07837153 4.72410245 22.00069131 8.88247808 23 13 C23.20496094 12.14535156 23.40992188 11.29070312 23.62109375 10.41015625 C23.89050781 9.30542969 24.15992188 8.20070312 24.4375 7.0625 C24.70433594 5.96035156 24.97117187 4.85820312 25.24609375 3.72265625 C26 1 26 1 27 0 C28.66617115 -0.04063832 30.33388095 -0.042721 32 0 C33.13902011 3.41706032 32.8198446 4.66260692 32.00390625 8.10546875 C31.77509766 9.08837891 31.54628906 10.07128906 31.31054688 11.08398438 C31.06369141 12.10814453 30.81683594 13.13230469 30.5625 14.1875 C30.31951172 15.22326172 30.07652344 16.25902344 29.82617188 17.32617188 C29.22457901 19.88589053 28.61559499 22.44361918 28 25 C25.36 25 22.72 25 20 25 C18.68 20.71 17.36 16.42 16 12 C14.68 16.29 13.36 20.58 12 25 C9.36 25 6.72 25 4 25 C3.128281 21.77531199 2.28078746 18.54472911 1.4375 15.3125 C1.19064453 14.40048828 0.94378906 13.48847656 0.68945312 12.54882812 C0.46064453 11.66259766 0.23183594 10.77636719 -0.00390625 9.86328125 C-0.21861572 9.05157471 -0.4333252 8.23986816 -0.65454102 7.40356445 C-1.04524148 4.68522803 -0.67719297 2.64496343 0 0 Z " fill="#2C2C2C" transform="translate(331,190)"/>
<path d="M0 0 C7.26 0 14.52 0 22 0 C22 1.98 22 3.96 22 6 C17.05 6 12.1 6 7 6 C7 7.98 7 9.96 7 12 C11.29 12 15.58 12 20 12 C20 13.98 20 15.96 20 18 C17.00519083 18.8723412 14.36424089 19.10829766 11.25 19.0625 C10.45078125 19.05347656 9.6515625 19.04445312 8.828125 19.03515625 C8.22484375 19.02355469 7.6215625 19.01195312 7 19 C7 21.31 7 23.62 7 26 C12.28 26 17.56 26 23 26 C23 27.98 23 29.96 23 32 C15.41 32 7.82 32 0 32 C0 21.44 0 10.88 0 0 Z " fill="#242424" transform="translate(139,183)"/>
<path d="M0 0 C3.46274731 1.8147018 5.67620389 3.88417049 8 7 C8.495 7.495 8.495 7.495 9 8 C9 9.65 9 11.3 9 13 C-4.86 13 -18.72 13 -33 13 C-33 11.35 -33 9.7 -33 8 C-30.98828125 6.26953125 -30.98828125 6.26953125 -28.3125 4.8125 C-27.44238281 4.32394531 -26.57226562 3.83539063 -25.67578125 3.33203125 C-24.79277344 2.89246094 -23.90976563 2.45289063 -23 2 C-22.2471875 1.62359375 -21.494375 1.2471875 -20.71875 0.859375 C-14.31156369 -1.16588504 -6.59711312 -1.15058655 0 0 Z " fill="#634DF4" transform="translate(110,213)"/>
<path d="M0 0 C7.26 0 14.52 0 22 0 C22 1.98 22 3.96 22 6 C17.38 6 12.76 6 8 6 C8 8.31 8 10.62 8 13 C11.96 13 15.92 13 20 13 C20 15.31 20 17.62 20 20 C16.04 20 12.08 20 8 20 C8 23.96 8 27.92 8 32 C5.36 32 2.72 32 0 32 C0 21.44 0 10.88 0 0 Z " fill="#323232" transform="translate(265,183)"/>
<path d="M0 0 C4.03760862 2.9993664 4.03760862 2.9993664 4.63671875 5.5 C4.71535156 6.20125 4.79398438 6.9025 4.875 7.625 C4.96136719 8.32625 5.04773438 9.0275 5.13671875 9.75 C5.1875 11.625 5.1875 11.625 4.1875 13.625 C-0.7625 13.625 -5.7125 13.625 -10.8125 13.625 C-10.4825 14.945 -10.1525 16.265 -9.8125 17.625 C-6.51009258 17.77860035 -4.20203596 17.78806157 -1.125 16.5 C-0.361875 16.21125 0.40125 15.9225 1.1875 15.625 C2.1775 16.285 3.1675 16.945 4.1875 17.625 C3.88799983 20.5201683 3.37815168 21.46323494 1.125 23.375 C-2.66509363 24.9878058 -5.75107623 25.23462547 -9.8125 24.625 C-13.48498378 22.99278499 -15.85476138 21.14892951 -17.8125 17.625 C-19.1009631 12.37203507 -18.80415712 8.65156321 -16.8125 3.625 C-12.39953386 -1.78444237 -6.39251031 -3.12522726 0 0 Z M-8.8125 4.625 C-9.4725 5.945 -10.1325 7.265 -10.8125 8.625 C-7.8425 8.625 -4.8725 8.625 -1.8125 8.625 C-2.4725 7.305 -3.1325 5.985 -3.8125 4.625 C-5.4625 4.625 -7.1125 4.625 -8.8125 4.625 Z " fill="#2D2D2D" transform="translate(208.8125,191.375)"/>
<path d="M0 0 C3.67248378 1.63221501 6.04226138 3.47607049 8 7 C9.2884631 12.25296493 8.99165712 15.97343679 7 21 C4.68924967 23.83253266 3.484864 24.83837867 0 26 C-4.79566077 26.39308695 -7.06907584 26.48270142 -11.375 24.25 C-14.38770602 21.66768056 -15.74846748 19.79666083 -16.30078125 15.8515625 C-16.32718031 10.83574125 -15.94174207 7.26045404 -13 3 C-9.02519946 -0.40697189 -5.02626822 -0.75445 0 0 Z M-7.75 7.625 C-9.35914482 10.68237517 -9.42694912 12.58440702 -9 16 C-7.62073227 18.34261608 -7.62073227 18.34261608 -6 20 C-3.02934491 19.65772428 -3.02934491 19.65772428 0 19 C1.59071226 15.81857548 1.39662254 12.46336466 1 9 C-0.08674994 6.91015769 -0.08674994 6.91015769 -2 6 C-5.90949128 5.54636593 -5.90949128 5.54636593 -7.75 7.625 Z " fill="#2A2A2A" transform="translate(319,190)"/>
<path d="M0 0 C2.5625 0.1875 2.5625 0.1875 4.5625 2.1875 C5.5525 1.5275 6.5425 0.8675 7.5625 0.1875 C9.82421875 0.2109375 9.82421875 0.2109375 12.25 0.5625 C13.05824219 0.67335937 13.86648437 0.78421875 14.69921875 0.8984375 C15.62154297 1.04152344 15.62154297 1.04152344 16.5625 1.1875 C19.36762399 6.7314852 19.9560213 10.96020879 19.75 17.125 C19.72969727 18.29385742 19.72969727 18.29385742 19.70898438 19.48632812 C19.67400224 21.38702404 19.62020959 23.28735834 19.5625 25.1875 C17.2525 25.1875 14.9425 25.1875 12.5625 25.1875 C12.50191406 24.05570313 12.44132813 22.92390625 12.37890625 21.7578125 C12.29450083 20.27602855 12.20985283 18.7942584 12.125 17.3125 C12.08568359 16.56613281 12.04636719 15.81976563 12.00585938 15.05078125 C11.84676376 10.98763136 11.84676376 10.98763136 10.5625 7.1875 C7.27174004 7.56654208 7.27174004 7.56654208 4.5625 9.1875 C4.32571284 11.87985776 4.14051975 14.55248156 4 17.25 C3.95681641 18.00861328 3.91363281 18.76722656 3.86914062 19.54882812 C3.76276367 21.42815438 3.66210066 23.30780244 3.5625 25.1875 C1.2525 25.1875 -1.0575 25.1875 -3.4375 25.1875 C-3.46636984 21.20834841 -3.48425406 17.22922347 -3.5 13.25 C-3.50837891 12.11369141 -3.51675781 10.97738281 -3.52539062 9.80664062 C-3.52861328 8.72705078 -3.53183594 7.64746094 -3.53515625 6.53515625 C-3.54039307 5.53492432 -3.54562988 4.53469238 -3.55102539 3.50415039 C-3.39410033 0.30186671 -3.19987866 0.24614451 0 0 Z " fill="#2B2B2B" transform="translate(221.4375,189.8125)"/>
<path d="M0 0 C4.0209138 0.60289397 6.49460522 2.05550948 9.91796875 4.234375 C11.03558594 4.93046875 12.15320313 5.6265625 13.3046875 6.34375 C17.81503375 9.64370961 17.81503375 9.64370961 19.23046875 12.484375 C19.5240296 15.40847128 19.6500264 18.06832437 19.60546875 20.984375 C19.61707031 21.74363281 19.62867187 22.50289062 19.640625 23.28515625 C19.61788709 27.61293864 19.36431826 30.3671067 16.23046875 33.484375 C17.30425781 33.46117187 18.37804687 33.43796875 19.484375 33.4140625 C20.9205659 33.39528876 22.3567644 33.3770903 23.79296875 33.359375 C24.49744141 33.34261719 25.20191406 33.32585937 25.92773438 33.30859375 C31.52203226 33.2570334 36.67706402 33.70888927 41.41015625 37 C44.96380302 40.63552803 47.23046875 43.11786431 47.23046875 48.484375 C46.23046875 49.484375 46.23046875 49.484375 44.43980408 49.60462952 C43.66036942 49.60240891 42.88093475 49.60018829 42.07788086 49.59790039 C41.1970433 49.59782486 40.31620575 49.59774933 39.40867615 49.59767151 C38.45139114 49.59251022 37.49410614 49.58734894 36.5078125 49.58203125 C35.53260147 49.5806163 34.55739044 49.57920135 33.55262756 49.57774353 C30.42437732 49.57212633 27.29619752 49.55957093 24.16796875 49.546875 C22.05273541 49.54186222 19.93750094 49.53729893 17.82226562 49.53320312 C12.62497579 49.52215131 7.4277273 49.50539646 2.23046875 49.484375 C1.10546875 44.734375 1.10546875 44.734375 2.23046875 42.484375 C1.28171875 42.38125 0.33296875 42.278125 -0.64453125 42.171875 C-3.76953125 41.484375 -3.76953125 41.484375 -5.76953125 38.484375 C-5.97699359 35.91755874 -6.07358197 33.4618572 -6.0703125 30.89453125 C-6.07459763 30.15359726 -6.07888275 29.41266327 -6.08329773 28.64927673 C-6.08903643 27.08333355 -6.08954466 25.5173637 -6.08520508 23.95141602 C-6.08204718 21.55894341 -6.10550084 19.16771017 -6.13085938 16.77539062 C-6.13313268 15.25260572 -6.13383572 13.7298175 -6.1328125 12.20703125 C-6.14202225 11.49337906 -6.15123199 10.77972687 -6.16072083 10.04444885 C-6.13184322 6.93488863 -5.93178662 4.77921131 -4.41992188 2.03198242 C-2.76953125 0.484375 -2.76953125 0.484375 0 0 Z M-3.76953125 4.484375 C-3.870446 7.06626946 -3.90924624 9.62084 -3.90234375 12.203125 C-3.90330048 12.97619995 -3.9042572 13.7492749 -3.90524292 14.54577637 C-3.90592466 16.18335044 -3.90407082 17.82092719 -3.89990234 19.45849609 C-3.89455396 21.97369421 -3.89984751 24.48871373 -3.90625 27.00390625 C-3.90558922 28.59114623 -3.90430805 30.1783861 -3.90234375 31.765625 C-3.90436798 32.52290894 -3.90639221 33.28019287 -3.90847778 34.0604248 C-4.21406809 37.56453063 -4.21406809 37.56453063 -2.76953125 40.484375 C3.74065931 40.35151397 7.44270713 37.72764608 12.23046875 33.484375 C13.1225 32.74703125 14.01453125 32.0096875 14.93359375 31.25 C17.90640505 27.67049251 17.90151096 25.58859633 17.85546875 20.984375 C17.86835937 19.6953125 17.88125 18.40625 17.89453125 17.078125 C16.9367625 11.89490588 14.21257847 10.05840331 10.23828125 6.90234375 C6.53912565 4.4848458 0.18621705 0.5286267 -3.76953125 4.484375 Z M12.23046875 35.484375 C11.90046875 36.144375 11.57046875 36.804375 11.23046875 37.484375 C11.89046875 37.484375 12.55046875 37.484375 13.23046875 37.484375 C12.90046875 36.824375 12.57046875 36.164375 12.23046875 35.484375 Z M8.23046875 40.484375 C6.68359375 41.226875 6.68359375 41.226875 5.10546875 41.984375 C4.48671875 42.479375 3.86796875 42.974375 3.23046875 43.484375 C3.23046875 45.134375 3.23046875 46.784375 3.23046875 48.484375 C17.09046875 48.484375 30.95046875 48.484375 45.23046875 48.484375 C45.72453087 43.74476076 45.72453087 43.74476076 43.76953125 41.5 C43.13789062 40.91734375 42.50625 40.3346875 41.85546875 39.734375 C41.22898438 39.14140625 40.6025 38.5484375 39.95703125 37.9375 C34.92483384 33.70225693 26.69793999 34.94124591 20.41650391 35.24462891 C15.69411194 35.76254145 12.09926946 37.88686377 8.23046875 40.484375 Z M5.23046875 39.484375 C4.90046875 40.144375 4.57046875 40.804375 4.23046875 41.484375 C5.22046875 41.154375 6.21046875 40.824375 7.23046875 40.484375 C6.57046875 40.154375 5.91046875 39.824375 5.23046875 39.484375 Z " fill="#F6BBB5" transform="translate(73.76953125,177.515625)"/>
<path d="M0 0 C1.98 0 3.96 0 6 0 C10.40774487 10.37357631 10.40774487 10.37357631 11 16 C11.66 16 12.32 16 13 16 C13.10957031 15.43152344 13.21914062 14.86304688 13.33203125 14.27734375 C14.37938166 9.17683242 15.79271753 4.715558 18 0 C19.98 0 21.96 0 24 0 C25 2 25 2 24.39501953 4.23071289 C24.06099121 5.1355542 23.72696289 6.04039551 23.3828125 6.97265625 C23.02316406 7.95427734 22.66351563 8.93589844 22.29296875 9.94726562 C21.90753906 10.97529297 21.52210938 12.00332031 21.125 13.0625 C20.74730469 14.09439453 20.36960938 15.12628906 19.98046875 16.18945312 C17.14991202 23.85008798 17.14991202 23.85008798 16 25 C13.32941149 25.14115161 10.67567762 25.04247107 8 25 C6.7885514 22.1103972 5.58183644 19.21900511 4.3828125 16.32421875 C3.51508954 14.23825196 2.63650446 12.15673551 1.7421875 10.08203125 C1.37351563 9.20933594 1.00484375 8.33664063 0.625 7.4375 C0.28726563 6.65246094 -0.05046875 5.86742187 -0.3984375 5.05859375 C-1 3 -1 3 0 0 Z " fill="#2E2E2E" transform="translate(164,190)"/>
<path d="M0 0 C0 1.65 0 3.3 0 5 C0.969375 4.979375 1.93875 4.95875 2.9375 4.9375 C6 5 6 5 7 6 C7.04063832 7.66617115 7.042721 9.33388095 7 11 C4.69 11 2.38 11 0 11 C0 15.29 0 19.58 0 24 C1.98 24 3.96 24 6 24 C6.66 25.65 7.32 27.3 8 29 C4.24952518 31.50031654 2.44143734 31.53603554 -2 31 C-4.70703125 28.9609375 -4.70703125 28.9609375 -7 26 C-7.36771245 23.1612599 -7.48630804 20.98179849 -7.3125 18.1875 C-7.28994141 17.49462891 -7.26738281 16.80175781 -7.24414062 16.08789062 C-7.18562661 14.39098427 -7.0959548 12.69520139 -7 11 C-8.32 11 -9.64 11 -11 11 C-11 9.35 -11 7.7 -11 6 C-9.68 5.67 -8.36 5.34 -7 5 C-7 3.68 -7 2.36 -7 1 C-4.53721199 -0.231394 -2.7204945 -0.07159196 0 0 Z " fill="#2F2F2F" transform="translate(254,185)"/>
<path d="M0 0 C2.31 0 4.62 0 7 0 C7.33 9.24 7.66 18.48 8 28 C8.99 28.33 9.98 28.66 11 29 C11 30.98 11 32.96 11 35 C4.52369077 35.36658354 4.52369077 35.36658354 2.125 33.6875 C-0.32140532 30.01789202 -0.11631919 26.63709543 -0.09765625 22.36328125 C-0.09443359 21.06455078 -0.09121094 19.76582031 -0.08789062 18.42773438 C-0.07953531 17.05598892 -0.07107037 15.68424413 -0.0625 14.3125 C-0.05748335 12.92903805 -0.05292073 11.54557437 -0.04882812 10.16210938 C-0.03702529 6.77469605 -0.02056019 3.38736967 0 0 Z " fill="#2A2A2A" transform="translate(290,181)"/>
<path d="M0 0 C2.5 1.5625 2.5 1.5625 4 4 C4.71869236 8.39200889 4.48111179 10.27833231 2 14 C-1.06692037 16.04461358 -1.66893707 16.32393649 -5.125 16.0625 C-7.79089042 15.51926195 -8.88268995 15.09898036 -11 13.3125 C-12.61554364 9.57655533 -12.5602715 6.48071753 -11.125 2.6875 C-8.59371548 -1.10942678 -4.11333009 -0.56903776 0 0 Z " fill="#F08C82" transform="translate(106,191)"/>
<path d="M0 0 C0.82062424 0.00015106 1.64124847 0.00030212 2.48674011 0.00045776 C3.80875175 0.01594162 3.80875175 0.01594162 5.1574707 0.03173828 C6.5161602 0.03598312 6.5161602 0.03598312 7.90229797 0.04031372 C10.79608353 0.05151114 13.6895599 0.07661489 16.58325195 0.10205078 C18.54483603 0.11208115 20.50642495 0.1212069 22.46801758 0.12939453 C27.27738155 0.15144905 32.08651432 0.18597589 36.89575195 0.22705078 C36.89575195 1.54705078 36.89575195 2.86705078 36.89575195 4.22705078 C36.23575195 4.22705078 35.57575195 4.22705078 34.89575195 4.22705078 C34.89575195 3.56705078 34.89575195 2.90705078 34.89575195 2.22705078 C16.08575195 2.72205078 16.08575195 2.72205078 -3.10424805 3.22705078 C-3.10424805 3.88705078 -3.10424805 4.54705078 -3.10424805 5.22705078 C-1.45424805 5.55705078 0.19575195 5.88705078 1.89575195 6.22705078 C2.22575195 7.87705078 2.55575195 9.52705078 2.89575195 11.22705078 C11.30667873 13.44357737 22.54844847 16.01422507 30.5637207 11.83642578 C34.12098464 8.85584033 36.77659425 5.84357631 37.89575195 1.22705078 C38.22575195 1.22705078 38.55575195 1.22705078 38.89575195 1.22705078 C39.30353709 4.60926871 39.15701379 5.88093468 37.06762695 8.64892578 C35.86879883 9.80134766 35.86879883 9.80134766 34.64575195 10.97705078 C33.8568457 11.75564453 33.06793945 12.53423828 32.25512695 13.33642578 C26.74362855 17.7529245 18.62898965 16.83593633 11.84887695 16.46240234 C7.27227187 15.91092143 3.67184993 13.7205652 -0.10424805 11.22705078 C-0.73202148 10.88158203 -1.35979492 10.53611328 -2.0065918 10.18017578 C-4.83183516 8.55815371 -5.97687455 7.62736748 -6.97924805 4.47705078 C-7.02049805 3.73455078 -7.06174805 2.99205078 -7.10424805 2.22705078 C-4.03653614 0.18190951 -3.44856757 -0.02122195 0 0 Z " fill="#CAC2F6" transform="translate(82.104248046875,169.77294921875)"/>
<path d="M0 0 C2.97 0.33 5.94 0.66 9 1 C11.80512399 6.5439852 12.3935213 10.77270879 12.1875 16.9375 C12.17396484 17.71673828 12.16042969 18.49597656 12.14648438 19.29882812 C12.11150224 21.19952404 12.05770959 23.09985834 12 25 C9.69 25 7.38 25 5 25 C4.93941406 23.89140625 4.87882813 22.7828125 4.81640625 21.640625 C4.73197049 20.1770718 4.64732401 18.71353075 4.5625 17.25 C4.52318359 16.52039063 4.48386719 15.79078125 4.44335938 15.0390625 C4.23852902 11.5727027 3.9147998 8.34666974 3 5 C1.35 4.67 -0.3 4.34 -2 4 C-1.34 2.68 -0.68 1.36 0 0 Z " fill="#252525" transform="translate(229,190)"/>
<path d="M0 0 C0.66 0.33 1.32 0.66 2 1 C5.27053655 1.02592724 8.52633983 0.97301278 11.79492188 0.87304688 C17.36888691 0.78457124 22.4602568 1.23401369 27.1796875 4.515625 C30.73333427 8.15115303 33 10.63348931 33 16 C32 17 32 17 28.03100586 17.11352539 C26.25894393 17.1133662 24.4868774 17.10766785 22.71484375 17.09765625 C21.78402481 17.0962413 20.85320587 17.09482635 19.8941803 17.09336853 C16.90858809 17.08775172 13.92306971 17.0751964 10.9375 17.0625 C8.91862087 17.05748716 6.89974057 17.05292388 4.88085938 17.04882812 C-0.07945572 17.03777683 -5.03971532 17.02050095 -10 17 C-10 16.67 -10 16.34 -10 16 C3.53 16 17.06 16 31 16 C28.98071585 9.57422909 28.98071585 9.57422909 24.6640625 5.12890625 C17.27842662 1.99921597 6.66442798 3.13775947 -1 5 C-1.33 4.01 -1.66 3.02 -2 2 C-1.34 1.34 -0.68 0.68 0 0 Z " fill="#CCC3F6" transform="translate(88,210)"/>
<path d="M0 0 C0.83595703 0.00902344 1.67191406 0.01804688 2.53320312 0.02734375 C4.58475969 0.05079011 6.63616777 0.08665734 8.6875 0.125 C8.6875 0.455 8.6875 0.785 8.6875 1.125 C7.37394531 1.23457031 6.06039062 1.34414062 4.70703125 1.45703125 C2.97129376 1.61653145 1.2356198 1.77672413 -0.5 1.9375 C-1.36431641 2.00775391 -2.22863281 2.07800781 -3.11914062 2.15039062 C-7.93069862 2.61126783 -11.32450658 3.17570449 -15.3125 6.125 C-16.199375 6.62 -17.08625 7.115 -18 7.625 C-20.56182514 9.06977638 -20.56182514 9.06977638 -22.3125 12.125 C-9.4425 12.125 3.4275 12.125 16.6875 12.125 C17.0175 10.805 17.3475 9.485 17.6875 8.125 C17.6875 9.775 17.6875 11.425 17.6875 13.125 C3.8275 13.125 -10.0325 13.125 -24.3125 13.125 C-24.3125 11.475 -24.3125 9.825 -24.3125 8.125 C-22.30078125 6.39453125 -22.30078125 6.39453125 -19.625 4.9375 C-18.75488281 4.44894531 -17.88476562 3.96039063 -16.98828125 3.45703125 C-16.10527344 3.01746094 -15.22226563 2.57789063 -14.3125 2.125 C-13.57 1.73957031 -12.8275 1.35414063 -12.0625 0.95703125 C-8.03667769 -0.26100874 -4.17865492 -0.08574982 0 0 Z " fill="#6755DC" transform="translate(101.3125,212.875)"/>
<path d="M0 0 C13.53 0 27.06 0 41 0 C41 1.32 41 2.64 41 4 C40.34 4 39.68 4 39 4 C39 3.34 39 2.68 39 2 C33.62452409 2.0934007 28.24950579 2.1994635 22.87451172 2.31738281 C21.04515471 2.35571777 19.21572115 2.39056263 17.38623047 2.421875 C14.75981241 2.46742805 12.13392341 2.52543731 9.5078125 2.5859375 C8.27649094 2.60326431 8.27649094 2.60326431 7.02029419 2.62094116 C2.5375356 2.5572544 2.5375356 2.5572544 -1 5 C-0.67 3.35 -0.34 1.7 0 0 Z " fill="#A39BE0" transform="translate(78,170)"/>
<path d="M0 0 C1.65 0 3.3 0 5 0 C5.33 0.99 5.66 1.98 6 3 C6.33 2.01 6.66 1.02 7 0 C7.99 0 8.98 0 10 0 C10.25 5.625 10.25 5.625 8 9 C4.375 9.1875 4.375 9.1875 1 9 C0.67 6.03 0.34 3.06 0 0 Z " fill="#F67A6F" transform="translate(97,196)"/>
<path d="M0 0 C2.5 1.5625 2.5 1.5625 4 4 C4.71869236 8.39200889 4.48111179 10.27833231 2 14 C-1.06692037 16.04461358 -1.66893707 16.32393649 -5.125 16.0625 C-7.79089042 15.51926195 -8.88268995 15.09898036 -11 13.3125 C-12.25320885 10.41445453 -12.2130417 8.12461161 -12 5 C-11.67 5 -11.34 5 -11 5 C-10.690625 6.134375 -10.38125 7.26875 -10.0625 8.4375 C-9.37075469 11.78775099 -9.37075469 11.78775099 -8 13 C-3.31877614 13.4384576 -3.31877614 13.4384576 0.9375 11.8125 C2.40319823 9.31219126 2.49852135 7.84869344 2 5 C0.57951684 2.93243871 0.57951684 2.93243871 -2 2 C-4.77126779 2.05817547 -7.25526545 2.49679867 -10 3 C-10 2.34 -10 1.68 -10 1 C-6.79419594 -0.60290203 -3.47817686 -0.48117071 0 0 Z " fill="#FDDAD8" transform="translate(106,191)"/>
<path d="M0 0 C0.99 0.33 1.98 0.66 3 1 C3 1.99 3 2.98 3 4 C-0.96 5.98 -0.96 5.98 -5 8 C-5 9.98 -5 11.96 -5 14 C-5.99 13.67 -6.98 13.34 -8 13 C-7.67 11.02 -7.34 9.04 -7 7 C-9.97 6.505 -9.97 6.505 -13 6 C-13 5.01 -13 4.02 -13 3 C-12.67 3.33 -12.34 3.66 -12 4 C-7.1114518 3.62395783 -4.12793555 2.52262728 0 0 Z M-4 4 C-4.33 4.66 -4.66 5.32 -5 6 C-4.01 5.67 -3.02 5.34 -2 5 C-2.66 4.67 -3.32 4.34 -4 4 Z " fill="#F1E0ED" transform="translate(83,213)"/>
<path d="M0 0 C0 0.33 0 0.66 0 1 C-1.31355469 1.10957031 -2.62710938 1.21914062 -3.98046875 1.33203125 C-5.71620624 1.49153145 -7.4518802 1.65172413 -9.1875 1.8125 C-10.05181641 1.88275391 -10.91613281 1.95300781 -11.80664062 2.02539062 C-16.67196409 2.49141778 -19.91520236 3.14064165 -24 6 C-25.58570941 6.61260316 -27.19038365 7.17907547 -28.8125 7.6875 C-29.99779297 8.06455078 -29.99779297 8.06455078 -31.20703125 8.44921875 C-31.79871094 8.63097656 -32.39039062 8.81273437 -33 9 C-30.78725698 4.57451396 -24.68006393 2.45720243 -20.21044922 0.65478516 C-13.7407723 -1.26167977 -6.64586697 -0.47470478 0 0 Z " fill="#786AE2" transform="translate(110,213)"/>
<path d="M0 0 C4.07224296 0.35987263 6.75934815 1.87513346 10.109375 4.046875 C10.68558594 4.39492187 11.26179688 4.74296875 11.85546875 5.1015625 C15.03811455 7.10462629 17.09474114 8.69753247 18.359375 12.296875 C14.16003749 10.01990088 10.04085389 7.76866808 6.109375 5.046875 C3.38025995 3.31016542 1.52075328 2.73595532 -1.640625 2.296875 C-2.300625 1.966875 -2.960625 1.636875 -3.640625 1.296875 C-2.640625 0.296875 -2.640625 0.296875 0 0 Z " fill="#FCD9D5" transform="translate(73.640625,177.703125)"/>
<path d="M0 0 C0.33 1.32 0.66 2.64 1 4 C3.31 4.33 5.62 4.66 8 5 C8.12375 6.175625 8.12375 6.175625 8.25 7.375 C8.72806339 10.14749104 8.72806339 10.14749104 11.0625 11.3125 C11.701875 11.539375 12.34125 11.76625 13 12 C9.43330308 12 7.93905369 11.08572057 4.875 9.3125 C3.98554687 8.81363281 3.09609375 8.31476563 2.1796875 7.80078125 C0 6 0 6 -0.8671875 3.35546875 C-0.91101563 2.57816406 -0.95484375 1.80085937 -1 1 C-0.67 0.67 -0.34 0.34 0 0 Z " fill="#BAB0F5" transform="translate(76,171)"/>
</svg>
