<?xml version="1.0" standalone="no"?>
<!DOCTYPE svg PUBLIC "-//W3C//DTD SVG 20010904//EN"
 "http://www.w3.org/TR/2001/REC-SVG-20010904/DTD/svg10.dtd">
<svg version="1.0" xmlns="http://www.w3.org/2000/svg"
 width="295.000000pt" height="120.000000pt" viewBox="0 0 295.000000 120.000000"
 preserveAspectRatio="xMidYMid meet">

<g transform="translate(0.000000,120.000000) scale(0.100000,-0.100000)"
fill="#000000" stroke="none">
<path d="M267 863 c-14 -13 -6 -21 58 -63 110 -71 232 -67 294 10 18 22 29 45
26 50 -7 11 -367 14 -378 3z"/>
<path d="M2020 679 c0 -122 8 -149 45 -149 27 0 34 24 10 34 -12 4 -15 27 -15
116 0 103 -1 110 -20 110 -19 0 -20 -7 -20 -111z"/>
<path d="M820 655 l0 -125 80 0 c73 0 80 2 80 20 0 18 -7 20 -60 20 l-60 0 0
35 0 35 55 0 c48 0 55 2 55 20 0 18 -7 20 -56 20 l-55 0 3 33 c3 32 4 32 61
35 42 2 57 7 57 17 0 12 -17 15 -80 15 l-80 0 0 -125z"/>
<path d="M1820 655 c0 -117 1 -125 19 -125 17 0 20 8 23 53 l3 52 53 3 c37 2
52 7 52 18 0 10 -14 14 -56 14 l-55 0 3 38 3 37 53 3 c37 2 52 7 52 18 0 11
-16 14 -75 14 l-75 0 0 -125z"/>
<path d="M1688 753 c-10 -2 -18 -13 -18 -23 0 -10 -6 -21 -12 -24 -10 -5 -10
-7 0 -12 7 -4 12 -27 12 -65 0 -46 5 -64 20 -79 20 -20 74 -28 84 -12 6 10 -8
34 -20 31 -29 -5 -34 3 -34 62 0 60 0 61 25 55 18 -5 25 -2 25 9 0 9 -9 15
-25 15 -20 0 -25 5 -25 25 0 25 -1 26 -32 18z"/>
<path d="M1275 708 c-33 -18 -45 -40 -45 -85 0 -33 6 -50 25 -68 31 -32 93
-34 119 -6 22 25 7 33 -32 19 -27 -10 -34 -9 -51 7 -38 34 -27 45 44 45 57 0
65 2 65 19 0 33 -11 51 -41 66 -33 18 -57 18 -84 3z m75 -37 c15 -30 14 -31
-35 -31 -25 0 -45 3 -45 6 0 20 24 44 45 44 14 0 29 -8 35 -19z"/>
<path d="M1510 703 c-17 -12 -25 -13 -28 -5 -2 7 -12 12 -23 12 -18 0 -20 -6
-17 -87 2 -71 6 -88 19 -91 13 -2 17 9 21 63 6 69 19 95 49 95 27 0 39 -31 39
-99 0 -54 2 -61 20 -61 18 0 20 7 20 75 0 62 -4 79 -20 95 -24 24 -48 25 -80
3z"/>
<path d="M2174 710 c-57 -23 -71 -99 -27 -150 24 -30 30 -32 72 -27 54 6 81
34 81 82 0 53 -16 81 -51 94 -37 13 -46 13 -75 1z m70 -42 c9 -12 16 -33 16
-45 0 -23 -32 -63 -50 -63 -18 0 -50 40 -50 63 0 31 27 67 50 67 10 0 26 -10
34 -22z"/>
<path d="M1030 663 c10 -27 25 -66 33 -88 12 -33 19 -40 42 -40 23 0 30 7 42
40 8 22 23 61 33 88 l19 47 -23 0 c-17 0 -26 -7 -30 -24 -3 -13 -14 -43 -24
-67 l-18 -43 -24 67 c-20 56 -27 67 -46 67 l-23 0 19 -47z"/>
<path d="M2340 703 c0 -15 31 -157 36 -165 3 -4 14 -8 24 -8 15 0 23 13 36 58
9 31 20 61 24 66 5 4 13 -16 19 -45 14 -67 23 -82 47 -77 13 2 23 20 35 63 31
118 31 115 11 115 -15 0 -22 -12 -32 -61 -7 -33 -16 -56 -20 -52 -4 4 -15 32
-25 61 -12 38 -22 52 -35 52 -18 0 -28 -20 -45 -95 -7 -27 -8 -28 -16 -10 -4
11 -13 39 -19 63 -7 25 -17 42 -25 42 -8 0 -15 -3 -15 -7z"/>
<path d="M364 450 c-66 -34 -111 -66 -103 -74 7 -8 377 -11 385 -3 10 10 -47
73 -83 91 -51 26 -131 21 -199 -14z"/>
</g>
</svg>
